<svg t="1627435923026" class="icon" viewBox="0 0 1024 1024" version="1.1" xmlns="http://www.w3.org/2000/svg" p-id="9505" width="128" height="128"><path d="M883.978612 687.041698a51.191978 51.191978 0 0 0-73.130968 73.131968l39.307982 39.307983h-38.576983a272.23188 272.23188 0 0 1-271.86588-272.597881 374.799835 374.799835 0 0 0-374.249836-374.249835H51.192978a51.191978 51.191978 0 0 0 0 102.383955h114.268949a272.23188 272.23188 0 0 1 271.866881 271.86588 374.799835 374.799835 0 0 0 374.249835 374.249836h36.565984l-36.565984 35.469984a51.191978 51.191978 0 0 0 36.565984 87.391962 50.459978 50.459978 0 0 0 36.565984-14.991993l124.871945-124.871946a51.374977 51.374977 0 0 0 0-73.131967z m-456.1568 46.25598a51.191978 51.191978 0 0 0-71.119969 13.711994 271.499881 271.499881 0 0 1-225.427901 119.935947h-80.079964a51.191978 51.191978 0 1 0 0 102.383955h80.079964a373.701836 373.701836 0 0 0 310.807864-164.545928 51.191978 51.191978 0 0 0-14.259994-71.485968z" p-id="9506" fill="#409eff"></path><path d="M51.193978 580.269745h279.727877a51.191978 51.191978 0 0 0 0-102.383955H51.193978a51.191978 51.191978 0 1 0 0 102.383955zM553.791757 352.099845a51.739977 51.739977 0 0 0 29.069987 8.957996 51.009978 51.009978 0 0 0 42.232981-22.12199 272.23188 272.23188 0 0 1 224.146902-118.106948h6.215997l-43.879981 43.877981a51.191978 51.191978 0 0 0 36.566984 87.392961 50.459978 50.459978 0 0 0 36.565984-14.991993l124.871945-124.689945a51.374977 51.374977 0 0 0 0-73.130968L883.978612 15.146993a51.191978 51.191978 0 0 0-73.130968 73.129968l31.263986 31.081987a374.799835 374.799835 0 0 0-302.215867 162.349928 51.374977 51.374977 0 0 0 13.894994 70.389969z" p-id="9507" fill="#409eff"></path></svg>