<svg t="1623134543111" class="icon" viewBox="0 0 1024 1024" version="1.1" xmlns="http://www.w3.org/2000/svg" p-id="2893" width="200" height="200"><path d="M780.970667 481.792c-0.106667-17.834667-14.08-37.376-31.445334-37.589333h-427.52c-17.344 0.234667-31.296 19.776-31.402666 37.589333 0.106667 17.834667 14.08 37.397333 31.424 37.610667h430.357333c17.173333-2.944 28.586667-22.826667 28.586667-37.610667zM328.213333 661.546667c-17.344 0.213333-31.36 19.754667-31.445333 37.589333 0.106667 17.834667 14.08 37.397333 31.445333 37.610667h154.538667c17.365333-0.213333 31.36-19.776 31.445333-37.610667-0.085333-17.834667-14.08-37.376-31.445333-37.589333h-154.538667z m421.333334-425.301334h-427.52c-17.365333 0.234667-31.317333 19.776-31.424 37.589334 0.106667 17.834667 14.08 37.397333 31.424 37.610666h430.357333c17.173333-2.986667 28.586667-22.826667 28.586667-37.610666-0.106667-17.834667-14.08-37.376-31.445334-37.589334z m183.573333 576.512h-4.885333c-17.344 0.213333-37.504 14.677333-37.589334 32.533334v74.368c-0.106667 17.792-14.08 32.256-31.36 32.533333H207.36c-17.344-0.234667-31.36-14.72-31.445333-32.533333V105.706667c0.085333-17.856 14.08-32.362667 31.445333-32.576h654.72c17.344 0.213333 31.338667 14.698667 31.466667 32.533333v307.925333c0.085333 17.813333 20.181333 32.256 37.504 32.512 17.344-0.213333 36.266667-14.677333 36.352-32.512V95.509333c0-50.261333-39.957333-94.570667-91.349334-94.570666H196.266667C144.896 3.861333 104.917333 45.226667 104.917333 95.488v832.576c0 50.282667 39.978667 94.592 91.370667 94.592h676.906667c50.496-0.554667 91.178667-42.666667 91.349333-94.592v-85.76c0-17.728-14.272-29.546667-31.424-29.546667z m77.077333-285.952c-11.946667-11.797333-30.848-16.853333-42.794666-5.056L743.210667 764.202667l-105.642667-109.397334c-11.946667-11.797333-30.848-8-42.794667 3.797334-11.413333 12.458667-11.413333 38.229333 0 50.666666l128.469334 133.077334c5.333333 5.354667 12.458667 8.533333 19.925333 8.896 8.597333 0 14.293333-2.986667 20.010667-8.896L1007.36 579.157333c14.272-14.741333 14.272-40.533333 2.816-52.352z" p-id="2894"></path></svg>