<svg t="1622710433628" class="icon" viewBox="0 0 1024 1024" version="1.1" xmlns="http://www.w3.org/2000/svg" p-id="2630" width="200" height="200"><path d="M512 1020C231.872 1020 4 792.096 4 512S231.904 4 512 4C792.128 4 1020 231.904 1020 512S792.096 1020 512 1020z m0-952C267.168 68 68 267.168 68 512S267.168 956 512 956 956 756.832 956 512 756.832 68 512 68z" fill="" p-id="2631"></path><path d="M433.536 628.352a32 32 0 0 1-32-32V229.536a32 32 0 0 1 64 0v366.816a32 32 0 0 1-32 32z" fill="" p-id="2632"></path><path d="M800.352 628.352H433.536a32 32 0 0 1 0-64h366.816a32 32 0 0 1 0 64z" fill="" p-id="2633"></path></svg>